<svg width="512" height="512" viewBox="0 0 512 512" xmlns="http://www.w3.org/2000/svg">
  <!-- Background -->
  <rect width="512" height="512" rx="64" fill="#1e293b"/>
  
  <!-- Network Grid Pattern -->
  <defs>
    <pattern id="grid" width="40" height="40" patternUnits="userSpaceOnUse">
      <path d="M 40 0 L 0 0 0 40" fill="none" stroke="#334155" stroke-width="1" opacity="0.3"/>
    </pattern>
  </defs>
  <rect width="512" height="512" fill="url(#grid)"/>
  
  <!-- Central Hub -->
  <circle cx="256" cy="256" r="48" fill="#3b82f6" stroke="#60a5fa" stroke-width="4"/>
  
  <!-- Device Nodes -->
  <circle cx="128" cy="128" r="24" fill="#10b981" stroke="#34d399" stroke-width="2"/>
  <circle cx="384" cy="128" r="24" fill="#10b981" stroke="#34d399" stroke-width="2"/>
  <circle cx="128" cy="384" r="24" fill="#10b981" stroke="#34d399" stroke-width="2"/>
  <circle cx="384" cy="384" r="24" fill="#10b981" stroke="#34d399" stroke-width="2"/>
  <circle cx="256" cy="96" r="20" fill="#f59e0b" stroke="#fbbf24" stroke-width="2"/>
  <circle cx="416" cy="256" r="20" fill="#f59e0b" stroke="#fbbf24" stroke-width="2"/>
  <circle cx="256" cy="416" r="20" fill="#f59e0b" stroke="#fbbf24" stroke-width="2"/>
  <circle cx="96" cy="256" r="20" fill="#f59e0b" stroke="#fbbf24" stroke-width="2"/>
  
  <!-- Connection Lines -->
  <line x1="256" y1="208" x2="128" y2="152" stroke="#60a5fa" stroke-width="3" opacity="0.7"/>
  <line x1="256" y1="208" x2="384" y2="152" stroke="#60a5fa" stroke-width="3" opacity="0.7"/>
  <line x1="256" y1="304" x2="128" y2="360" stroke="#60a5fa" stroke-width="3" opacity="0.7"/>
  <line x1="256" y1="304" x2="384" y2="360" stroke="#60a5fa" stroke-width="3" opacity="0.7"/>
  <line x1="256" y1="208" x2="256" y2="116" stroke="#60a5fa" stroke-width="3" opacity="0.7"/>
  <line x1="304" y1="256" x2="396" y2="256" stroke="#60a5fa" stroke-width="3" opacity="0.7"/>
  <line x1="256" y1="304" x2="256" y2="396" stroke="#60a5fa" stroke-width="3" opacity="0.7"/>
  <line x1="208" y1="256" x2="116" y2="256" stroke="#60a5fa" stroke-width="3" opacity="0.7"/>
  
  <!-- Signal Waves -->
  <circle cx="256" cy="256" r="80" fill="none" stroke="#3b82f6" stroke-width="2" opacity="0.3"/>
  <circle cx="256" cy="256" r="120" fill="none" stroke="#3b82f6" stroke-width="1" opacity="0.2"/>
  <circle cx="256" cy="256" r="160" fill="none" stroke="#3b82f6" stroke-width="1" opacity="0.1"/>
  
  <!-- Center Icon -->
  <path d="M 240 240 L 240 248 L 248 248 L 248 256 L 256 256 L 256 248 L 264 248 L 264 240 L 272 240 L 272 232 L 264 232 L 264 224 L 256 224 L 256 232 L 248 232 L 248 240 Z" fill="white"/>
  <rect x="244" y="244" width="24" height="24" rx="2" fill="white" opacity="0.8"/>
</svg>